<?xml version="1.0" standalone="no"?>
<!DOCTYPE svg PUBLIC "-//W3C//DTD SVG 20010904//EN"
 "http://www.w3.org/TR/2001/REC-SVG-20010904/DTD/svg10.dtd">
<svg version="1.0" xmlns="http://www.w3.org/2000/svg"
 width="612.000000pt" height="612.000000pt" viewBox="0 0 612.000000 612.000000"
 preserveAspectRatio="xMidYMid meet">

<g transform="translate(0.000000,612.000000) scale(0.100000,-0.100000)"
fill="#000000" stroke="none">
<path d="M2727 5027 c-26 -20 -125 -183 -302 -492 -126 -221 -262 -520 -306
-675 -60 -209 -7 -426 146 -599 51 -57 152 -128 228 -159 394 -163 826 81 897
507 7 41 9 99 6 131 -23 197 -180 545 -464 1025 -158 267 -173 287 -205 262z
m193 -933 l0 -103 98 -3 97 -3 3 -174 c2 -119 -1 -178 -9 -187 -8 -10 -37 -14
-100 -14 l-89 0 0 -103 c0 -67 -4 -107 -12 -115 -8 -8 -59 -12 -163 -12 -104
0 -155 4 -163 12 -8 8 -12 48 -12 115 l0 103 -89 0 c-63 0 -92 4 -100 14 -8 9
-11 68 -9 187 l3 174 98 3 97 3 0 103 c0 74 4 107 13 114 8 7 72 13 158 14
185 4 179 8 179 -128z"/>
<path d="M985 3271 c-78 -20 -152 -78 -187 -146 -27 -51 -35 -159 -18 -221 20
-69 80 -143 282 -346 315 -317 665 -597 1152 -922 327 -218 427 -266 604 -286
125 -14 206 -5 724 80 391 65 434 70 499 58 67 -12 87 -23 457 -235 201 -115
310 -172 322 -168 23 7 33 32 21 52 -9 17 -572 344 -680 396 -107 51 -185 49
-551 -12 -351 -58 -545 -87 -645 -96 -88 -8 -203 7 -301 40 -169 57 -798 489
-1193 821 -275 230 -570 531 -607 619 -32 77 -12 188 43 237 32 29 106 58 152
58 89 0 110 -13 490 -318 201 -162 409 -329 461 -371 l95 -76 1 -70 c1 -120
69 -216 193 -273 54 -25 64 -26 331 -34 296 -8 691 -3 885 13 136 11 157 21
136 65 -11 24 -15 26 -54 20 -104 -15 -661 -26 -937 -18 l-296 8 -54 30 c-66
38 -105 84 -121 144 -18 68 -5 114 44 164 56 55 106 66 305 66 171 0 435 14
577 31 103 12 170 28 305 70 172 55 297 80 435 86 152 6 241 -5 370 -48 136
-45 214 -97 355 -234 169 -164 240 -213 569 -390 136 -74 162 -85 180 -75 26
13 27 42 4 62 -10 8 -76 46 -148 83 -129 68 -328 185 -395 234 -19 14 -89 77
-155 141 -66 64 -142 131 -168 149 -70 47 -177 94 -292 127 -92 27 -113 29
-265 29 -186 0 -277 -16 -501 -85 -234 -73 -358 -89 -789 -99 l-275 -6 -215
171 c-367 291 -543 424 -600 452 -73 36 -148 36 -222 -1 l-53 -26 -53 26 c-56
28 -160 39 -217 24z m486 -82 c40 -14 113 -66 353 -254 367 -287 411 -322 411
-331 0 -5 -21 -29 -47 -53 l-48 -43 -122 99 c-68 55 -217 175 -333 268 -305
245 -355 287 -355 295 0 8 61 27 91 29 9 1 31 -4 50 -10z"/>
</g>
</svg>
